<?xml version="1.0" encoding="utf-8" standalone="no"?>
<!DOCTYPE svg PUBLIC "-//W3C//DTD SVG 1.1//EN"
  "http://www.w3.org/Graphics/SVG/1.1/DTD/svg11.dtd">
<!-- Created with matplotlib (https://matplotlib.org/) -->
<svg height="440.39952pt" version="1.1" viewBox="0 0 368.39952 440.39952" width="368.39952pt" xmlns="http://www.w3.org/2000/svg" xmlns:xlink="http://www.w3.org/1999/xlink">
 <metadata>
  <rdf:RDF xmlns:cc="http://creativecommons.org/ns#" xmlns:dc="http://purl.org/dc/elements/1.1/" xmlns:rdf="http://www.w3.org/1999/02/22-rdf-syntax-ns#">
   <cc:Work>
    <dc:type rdf:resource="http://purl.org/dc/dcmitype/StillImage"/>
    <dc:date>2021-08-16T21:27:19.335986</dc:date>
    <dc:format>image/svg+xml</dc:format>
    <dc:creator>
     <cc:Agent>
      <dc:title>Matplotlib v3.3.2, https://matplotlib.org/</dc:title>
     </cc:Agent>
    </dc:creator>
   </cc:Work>
  </rdf:RDF>
 </metadata>
 <defs>
  <style type="text/css">*{stroke-linecap:butt;stroke-linejoin:round;}</style>
 </defs>
 <g id="figure_1">
  <g id="patch_1">
   <path d="M 0 440.39952 
L 368.39952 440.39952 
L 368.39952 0 
L 0 0 
z
" style="fill:#ffffff;"/>
  </g>
  <g id="axes_1">
   <g id="patch_2">
    <path d="M 19.204844 138.175536 
L 361.19952 138.175536 
L 361.19952 7.2 
L 19.204844 7.2 
z
" style="fill:#ffffff;"/>
   </g>
   <g id="line2d_1">
    <path clip-path="url(#p84e35360c9)" d="M 19.204844 138.175536 
L 361.19952 138.175536 
" style="fill:none;stroke:#000000;stroke-linecap:square;stroke-width:0.5;"/>
   </g>
   <g id="patch_3">
    <path clip-path="url(#p84e35360c9)" d="M 38.17242 65.277236 
Q 42.367706 65.277236 44.187883 61.347409 
Q 46.008061 57.389511 46.008061 48.350908 
Q 46.008061 39.396515 44.187883 35.550898 
Q 42.367706 31.677211 38.17242 31.677211 
L 32.556508 31.677211 
L 32.556508 65.277236 
z
M 32.556508 88.603569 
L 32.556508 138.175536 
L 19.204844 138.175536 
L 19.204844 7.2 
L 39.593046 7.2 
Q 49.825993 7.2 54.58731 15.901761 
Q 59.359725 24.575451 59.359725 43.354413 
Q 59.359725 56.322843 56.87363 64.659692 
Q 54.398633 72.99654 49.404245 76.954438 
Q 52.145609 78.526369 54.309844 84.112338 
Q 56.485177 89.670237 58.704905 100.982526 
L 65.952317 138.175536 
L 51.734959 138.175536 
L 45.419833 105.642178 
Q 43.510866 95.81761 41.546407 92.224624 
Q 39.593046 88.603569 36.330046 88.603569 
z
" style="fill:#bd2e1f;"/>
   </g>
   <g id="patch_4">
    <path clip-path="url(#p84e35360c9)" d="M 115.160185 126.325239 
Q 110.445625 132.250387 105.374855 135.226489 
Q 100.304085 138.175536 94.898057 138.175536 
Q 82.68211 138.175536 75.54741 120.535368 
Q 68.412711 102.895201 68.412711 72.728351 
Q 68.412711 42.20978 75.673132 24.70489 
Q 82.94403 7.2 95.589525 7.2 
Q 100.461237 7.2 104.924353 9.580881 
Q 109.397946 11.934707 113.358175 16.588248 
L 113.358175 42.696778 
Q 109.272224 36.717519 105.22818 33.768473 
Q 101.184136 30.792371 97.119138 30.792371 
Q 89.596797 30.792371 85.521322 41.66867 
Q 81.445848 52.517914 81.445848 72.728351 
Q 81.445848 92.7494 85.374647 103.67981 
Q 89.303447 114.583165 96.532437 114.583165 
Q 98.502075 114.583165 100.18884 113.960889 
Q 101.875604 113.311558 103.216635 111.958784 
L 103.216635 87.446527 
L 95.516188 87.446527 
L 95.516188 65.612762 
L 115.160185 65.612762 
z
" style="fill:#787800;"/>
   </g>
   <g id="patch_5">
    <path clip-path="url(#p84e35360c9)" d="M 130.430877 32.743879 
L 130.430877 112.659727 
L 135.020435 112.659727 
Q 142.868473 112.659727 147.010789 102.386035 
Q 151.163754 92.112344 151.163754 72.547417 
Q 151.163754 53.094771 147.032086 42.93336 
Q 142.911068 32.743879 135.020435 32.743879 
z
M 117.620578 7.2 
L 131.123037 7.2 
Q 142.442528 7.2 147.979814 11.46667 
Q 153.5171 15.705269 157.47839 25.894751 
Q 160.97114 34.764933 162.664271 46.357924 
Q 164.368052 57.922845 164.368052 72.547417 
Q 164.368052 87.396551 162.664271 99.017612 
Q 160.97114 110.638673 157.47839 119.480785 
Q 153.485155 129.670266 147.894625 133.936936 
Q 142.304096 138.175536 131.123037 138.175536 
L 117.620578 138.175536 
z
" style="fill:#6b296b;"/>
   </g>
   <g id="patch_6">
    <path clip-path="url(#p84e35360c9)" d="M 199.210461 137.088537 
L 181.232134 137.088537 
L 178.393451 138.175536 
L 166.828445 138.175536 
L 183.34442 132.208554 
L 197.059944 132.208554 
L 213.575919 138.175536 
L 202.020471 138.175536 
z
M 184.099491 135.981078 
L 196.314431 135.981078 
L 190.216519 133.607585 
z
" style="fill:#21599c;"/>
   </g>
   <g id="patch_7">
    <path clip-path="url(#p84e35360c9)" d="M 191.448781 131.316236 
L 190.53331 131.316236 
Q 179.304177 131.316236 173.061442 130.647522 
Q 166.828445 129.977759 166.828445 128.784153 
Q 166.828445 127.592646 173.051702 126.917634 
Q 179.27496 126.241572 190.202182 126.241572 
Q 201.246273 126.241572 207.411096 126.911335 
Q 213.575919 127.580049 213.575919 128.784153 
Q 213.575919 129.610334 210.303596 130.207662 
Q 207.031272 130.80499 200.885927 131.106279 
L 210.040641 132.208554 
L 198.869943 132.208554 
z
M 190.202182 127.156985 
Q 184.845701 127.156985 181.894766 127.583198 
Q 178.943832 128.009411 178.943832 128.784153 
Q 178.943832 129.571492 181.826593 129.990357 
Q 184.719093 130.408171 190.202182 130.408171 
Q 195.58788 130.408171 198.538815 129.981958 
Q 201.489749 129.554696 201.489749 128.784153 
Q 201.489749 128.009411 198.538815 127.583198 
Q 195.58788 127.156985 190.202182 127.156985 
z
" style="fill:#40ba47;"/>
   </g>
   <g id="patch_8">
    <path clip-path="url(#p84e35360c9)" d="M 166.828445 114.307608 
L 213.575919 114.307608 
L 213.575919 116.635064 
L 196.7577 116.635064 
L 196.7577 126.241572 
L 183.679279 126.241572 
L 183.679279 116.635064 
L 166.828445 116.635064 
z
" style="fill:#40ba47;"/>
   </g>
   <g id="patch_9">
    <path clip-path="url(#p84e35360c9)" d="M 166.828445 102.373644 
L 178.393451 102.373644 
L 190.216519 111.182168 
L 202.020471 102.373644 
L 213.575919 102.373644 
L 197.059944 114.307608 
L 183.34442 114.307608 
z
" style="fill:#21599c;"/>
   </g>
   <g id="patch_10">
    <path clip-path="url(#p84e35360c9)" d="M 166.828445 66.571753 
L 183.792913 66.571753 
L 183.792913 95.398951 
L 213.575919 95.398951 
L 213.575919 102.373644 
L 166.828445 102.373644 
z
" style="fill:#21599c;"/>
   </g>
   <g id="patch_11">
    <path clip-path="url(#p84e35360c9)" d="M 216.036312 133.630124 
L 233.00078 133.630124 
L 233.00078 137.290028 
L 262.783786 137.290028 
L 262.783786 138.175536 
L 216.036312 138.175536 
z
" style="fill:#21599c;"/>
   </g>
   <g id="patch_12">
    <path clip-path="url(#p84e35360c9)" d="M 258.886047 124.973091 
L 258.886047 126.828438 
Q 254.010699 126.505442 249.363884 126.342066 
Q 244.729764 126.176813 240.603493 126.176813 
Q 235.131424 126.176813 232.503307 126.400281 
Q 229.887886 126.621871 229.887886 127.091341 
Q 229.887886 127.444383 231.65266 127.64156 
Q 233.417434 127.83686 238.06425 127.977701 
L 244.564713 128.171123 
Q 254.442371 128.46595 258.60673 129.064994 
Q 262.783786 129.662161 262.783786 130.766355 
Q 262.783786 132.214201 256.968918 132.922163 
Q 251.15405 133.630124 239.206909 133.630124 
Q 233.582485 133.630124 227.907276 133.470504 
Q 222.232066 133.312762 216.556857 133.001034 
L 216.556857 131.094984 
Q 222.232066 131.540042 227.526389 131.767266 
Q 232.820712 131.992611 237.746844 131.992611 
Q 242.749154 131.992611 245.402664 131.746609 
Q 248.056173 131.498729 248.056173 131.040525 
Q 248.056173 130.631147 246.25331 130.407679 
Q 244.450447 130.184212 239.054555 130.007691 
L 233.138117 129.814269 
Q 224.250765 129.532587 220.13719 128.916642 
Q 216.036312 128.300697 216.036312 127.256595 
Q 216.036312 125.947711 221.74961 125.243506 
Q 227.462908 124.5393 238.178516 124.5393 
Q 243.06656 124.5393 248.221224 124.648217 
Q 253.375888 124.757134 258.886047 124.973091 
z
" style="fill:#40ba47;"/>
   </g>
   <g id="patch_13">
    <path clip-path="url(#p84e35360c9)" d="M 216.036312 115.448477 
L 229.826366 115.448477 
L 239.392035 120.313412 
L 249.020753 115.448477 
L 262.783786 115.448477 
L 262.783786 124.5393 
L 252.542576 124.5393 
L 252.542576 117.889712 
L 242.859814 122.791664 
L 235.987305 122.791664 
L 226.304543 117.889712 
L 226.304543 124.5393 
L 216.036312 124.5393 
z
" style="fill:#21599c;"/>
   </g>
   <g id="patch_14">
    <path clip-path="url(#p84e35360c9)" d="M 216.036312 106.357653 
L 231.052303 106.357653 
L 250.026343 112.592251 
L 250.026343 106.357653 
L 262.783786 106.357653 
L 262.783786 115.448477 
L 247.756614 115.448477 
L 228.782574 109.213878 
L 228.782574 115.448477 
L 216.036312 115.448477 
z
" style="fill:#40ba47;"/>
   </g>
   <g id="patch_15">
    <path clip-path="url(#p84e35360c9)" d="M 248.418328 104.701588 
L 230.440001 104.701588 
L 227.601318 106.357653 
L 216.036312 106.357653 
L 232.552287 97.266829 
L 246.267811 97.266829 
L 262.783786 106.357653 
L 251.228338 106.357653 
z
M 233.307358 103.01435 
L 245.522298 103.01435 
L 239.424386 99.398283 
z
" style="fill:#21599c;"/>
   </g>
   <g id="patch_16">
    <path clip-path="url(#p84e35360c9)" d="M 216.036312 83.630594 
L 262.783786 83.630594 
L 262.783786 86.29004 
L 245.965567 86.29004 
L 245.965567 97.266829 
L 232.887146 97.266829 
L 232.887146 86.29004 
L 216.036312 86.29004 
z
" style="fill:#40ba47;"/>
   </g>
   <g id="patch_17">
    <path clip-path="url(#p84e35360c9)" d="M 265.244179 133.368089 
L 278.168481 133.368089 
L 288.608095 135.081502 
L 299.037889 133.368089 
L 311.991653 133.368089 
L 294.530097 136.149938 
L 294.530097 138.175536 
L 282.715556 138.175536 
L 282.715556 136.149938 
z
" style="fill:#177875;"/>
   </g>
   <g id="patch_18">
    <path clip-path="url(#p84e35360c9)" d="M 265.244179 128.560643 
L 311.018629 128.560643 
L 311.018629 129.498229 
L 282.208647 129.498229 
L 282.208647 130.392542 
L 309.312311 130.392542 
L 309.312311 131.330128 
L 282.208647 131.330128 
L 282.208647 132.431533 
L 311.991653 132.431533 
L 311.991653 133.368089 
L 265.244179 133.368089 
z
" style="fill:#6b296b;"/>
   </g>
   <g id="patch_19">
    <path clip-path="url(#p84e35360c9)" d="M 308.093914 119.404548 
L 308.093914 121.366852 
Q 303.218566 121.025236 298.571751 120.852442 
Q 293.937631 120.677662 289.811361 120.677662 
Q 284.339291 120.677662 281.711174 120.914012 
Q 279.095753 121.148377 279.095753 121.644911 
Q 279.095753 122.018305 280.860527 122.226849 
Q 282.625301 122.433408 287.272117 122.582368 
L 293.77258 122.78694 
Q 303.650238 123.098764 307.814597 123.732342 
Q 311.991653 124.363934 311.991653 125.531783 
Q 311.991653 127.063095 306.176785 127.811869 
Q 300.361917 128.560643 288.414777 128.560643 
Q 282.790352 128.560643 277.115143 128.391821 
Q 271.439933 128.224985 265.764724 127.895287 
L 265.764724 125.879357 
Q 271.439933 126.350071 276.734256 126.590394 
Q 282.028579 126.828731 286.954712 126.828731 
Q 291.957021 126.828731 294.610531 126.568547 
Q 297.26404 126.306376 297.26404 125.821759 
Q 297.26404 125.388781 295.461177 125.15243 
Q 293.658314 124.91608 288.262422 124.729383 
L 282.345984 124.524811 
Q 273.458632 124.22689 269.345058 123.575437 
Q 265.244179 122.923984 265.244179 121.819691 
Q 265.244179 120.435353 270.957477 119.690551 
Q 276.670775 118.94575 287.386383 118.94575 
Q 292.274427 118.94575 297.429091 119.060946 
Q 302.583756 119.176142 308.093914 119.404548 
z
" style="fill:#40ba47;"/>
   </g>
   <g id="patch_20">
    <path clip-path="url(#p84e35360c9)" d="M 289.864515 117.507914 
L 288.949044 117.507914 
Q 277.719911 117.507914 271.477176 116.430383 
Q 265.244179 115.35116 265.244179 113.427843 
Q 265.244179 111.50791 271.467437 110.420229 
Q 277.690694 109.330857 288.617916 109.330857 
Q 299.662007 109.330857 305.82683 110.41008 
Q 311.991653 111.487611 311.991653 113.427843 
Q 311.991653 114.75911 308.71933 115.721614 
Q 305.447007 116.684119 299.301662 117.1696 
L 308.456375 118.94575 
L 297.285677 118.94575 
z
M 288.617916 110.805907 
Q 283.261435 110.805907 280.3105 111.492685 
Q 277.359566 112.179463 277.359566 113.427843 
Q 277.359566 114.696522 280.242327 115.371459 
Q 283.134827 116.044705 288.617916 116.044705 
Q 294.003615 116.044705 296.954549 115.357926 
Q 299.905483 114.669457 299.905483 113.427843 
Q 299.905483 112.179463 296.954549 111.492685 
Q 294.003615 110.805907 288.617916 110.805907 
z
" style="fill:#40ba47;"/>
   </g>
   <g id="patch_21">
    <path clip-path="url(#p84e35360c9)" d="M 297.626195 107.579323 
L 279.647868 107.579323 
L 276.809185 109.330857 
L 265.244179 109.330857 
L 281.760154 99.715964 
L 295.475678 99.715964 
L 311.991653 109.330857 
L 300.436205 109.330857 
z
M 282.515225 105.794818 
L 294.730165 105.794818 
L 288.632253 101.970292 
z
" style="fill:#21599c;"/>
   </g>
   <g id="patch_22">
    <path clip-path="url(#p84e35360c9)" d="M 265.244179 80.486178 
L 311.991653 80.486178 
L 311.991653 84.236522 
L 295.173434 84.236522 
L 295.173434 99.715964 
L 282.095013 99.715964 
L 282.095013 84.236522 
L 265.244179 84.236522 
z
" style="fill:#40ba47;"/>
   </g>
   <g id="patch_23">
    <path clip-path="url(#p84e35360c9)" d="M 314.452046 132.526287 
L 331.416514 132.526287 
L 331.416514 137.074985 
L 361.19952 137.074985 
L 361.19952 138.175536 
L 314.452046 138.175536 
z
" style="fill:#21599c;"/>
   </g>
   <g id="patch_24">
    <path clip-path="url(#p84e35360c9)" d="M 314.452046 126.877038 
L 327.902707 126.877038 
L 327.902707 129.029709 
L 347.74886 129.029709 
L 347.74886 126.877038 
L 361.19952 126.877038 
L 361.19952 132.526287 
L 347.74886 132.526287 
L 347.74886 130.13147 
L 327.902707 130.13147 
L 327.902707 132.526287 
L 314.452046 132.526287 
z
" style="fill:#177875;"/>
   </g>
   <g id="patch_25">
    <path clip-path="url(#p84e35360c9)" d="M 314.452046 115.57854 
L 327.376348 115.57854 
L 337.815962 119.605416 
L 348.245756 115.57854 
L 361.19952 115.57854 
L 343.737964 122.116462 
L 343.737964 126.877038 
L 331.923424 126.877038 
L 331.923424 122.116462 
z
" style="fill:#177875;"/>
   </g>
   <g id="patch_26">
    <path clip-path="url(#p84e35360c9)" d="M 314.452046 92.981545 
L 326.77126 92.981545 
L 326.77126 101.229012 
L 344.528132 92.981545 
L 358.833985 92.981545 
L 335.823783 103.684365 
L 361.19952 115.57854 
L 345.777462 115.57854 
L 326.77126 106.677281 
L 326.77126 115.57854 
L 314.452046 115.57854 
z
" style="fill:#bd2e1f;"/>
   </g>
   <g id="patch_27">
    <path clip-path="url(#p84e35360c9)" d="M 314.452046 70.38455 
L 338.750994 70.38455 
Q 349.597868 70.38455 355.392607 72.30234 
Q 361.19952 74.215288 361.19952 77.755451 
Q 361.19952 81.314987 355.392607 83.227934 
Q 349.597868 85.140882 338.750994 85.140882 
L 329.097153 85.140882 
L 329.097153 92.981545 
L 314.452046 92.981545 
z
M 329.097153 74.607563 
L 329.097153 80.917868 
L 337.192744 80.917868 
Q 341.453582 80.917868 343.778782 80.094574 
Q 346.103982 79.271281 346.103982 77.755451 
Q 346.103982 76.244465 343.778782 75.426014 
Q 341.453582 74.607563 337.192744 74.607563 
z
" style="fill:#787800;"/>
   </g>
   <g id="matplotlib.axis_1">
    <g id="ytick_1">
     <g id="line2d_2">
      <defs>
       <path d="M 0 0 
L -3.5 0 
" id="m58726395b8" style="stroke:#000000;stroke-width:0.8;"/>
      </defs>
      <g>
       <use style="stroke:#000000;stroke-width:0.8;" x="19.204844" xlink:href="#m58726395b8" y="138.175536"/>
      </g>
     </g>
     <g id="text_1">
      <text style="font-family:Helvetica;font-size:9px;font-stretch:normal;font-style:normal;font-weight:normal;text-anchor:end;" transform="rotate(-0, 12.204844, 141.403582)" x="12.204844" y="141.403582">0</text>
     </g>
    </g>
    <g id="ytick_2">
     <g id="line2d_3">
      <g>
       <use style="stroke:#000000;stroke-width:0.8;" x="19.204844" xlink:href="#m58726395b8" y="107.87065"/>
      </g>
     </g>
     <g id="text_2">
      <text style="font-family:Helvetica;font-size:9px;font-stretch:normal;font-style:normal;font-weight:normal;text-anchor:end;" transform="rotate(-0, 12.204844, 111.098697)" x="12.204844" y="111.098697">1</text>
     </g>
    </g>
    <g id="ytick_3">
     <g id="line2d_4">
      <g>
       <use style="stroke:#000000;stroke-width:0.8;" x="19.204844" xlink:href="#m58726395b8" y="77.565765"/>
      </g>
     </g>
     <g id="text_3">
      <text style="font-family:Helvetica;font-size:9px;font-stretch:normal;font-style:normal;font-weight:normal;text-anchor:end;" transform="rotate(-0, 12.204844, 80.793812)" x="12.204844" y="80.793812">2</text>
     </g>
    </g>
    <g id="ytick_4">
     <g id="line2d_5">
      <g>
       <use style="stroke:#000000;stroke-width:0.8;" x="19.204844" xlink:href="#m58726395b8" y="47.260879"/>
      </g>
     </g>
     <g id="text_4">
      <text style="font-family:Helvetica;font-size:9px;font-stretch:normal;font-style:normal;font-weight:normal;text-anchor:end;" transform="rotate(-0, 12.204844, 50.488926)" x="12.204844" y="50.488926">3</text>
     </g>
    </g>
    <g id="ytick_5">
     <g id="line2d_6">
      <g>
       <use style="stroke:#000000;stroke-width:0.8;" x="19.204844" xlink:href="#m58726395b8" y="16.955994"/>
      </g>
     </g>
     <g id="text_5">
      <text style="font-family:Helvetica;font-size:9px;font-stretch:normal;font-style:normal;font-weight:normal;text-anchor:end;" transform="rotate(-0, 12.204844, 20.184041)" x="12.204844" y="20.184041">4</text>
     </g>
    </g>
   </g>
   <g id="patch_28">
    <path d="M 19.204844 138.175536 
L 19.204844 7.2 
" style="fill:none;stroke:#000000;stroke-linecap:square;stroke-linejoin:miter;stroke-width:0.8;"/>
   </g>
   <g id="patch_29">
    <path d="M 19.204844 138.175536 
L 361.19952 138.175536 
" style="fill:none;stroke:#000000;stroke-linecap:square;stroke-linejoin:miter;stroke-width:0.8;"/>
   </g>
  </g>
  <g id="axes_2">
   <g id="patch_30">
    <path d="M 19.204844 283.135536 
L 361.19952 283.135536 
L 361.19952 152.16 
L 19.204844 152.16 
z
" style="fill:#ffffff;"/>
   </g>
   <g id="line2d_7">
    <path clip-path="url(#pfbaf424a9c)" d="M 19.204844 283.135536 
L 361.19952 283.135536 
" style="fill:none;stroke:#000000;stroke-linecap:square;stroke-width:0.5;"/>
   </g>
   <g id="patch_31">
    <path clip-path="url(#pfbaf424a9c)" d="M 38.17242 210.237236 
Q 42.367706 210.237236 44.187883 206.307409 
Q 46.008061 202.349511 46.008061 193.310908 
Q 46.008061 184.356515 44.187883 180.510898 
Q 42.367706 176.637211 38.17242 176.637211 
L 32.556508 176.637211 
L 32.556508 210.237236 
z
M 32.556508 233.563569 
L 32.556508 283.135536 
L 19.204844 283.135536 
L 19.204844 152.16 
L 39.593046 152.16 
Q 49.825993 152.16 54.58731 160.861761 
Q 59.359725 169.535451 59.359725 188.314413 
Q 59.359725 201.282843 56.87363 209.619692 
Q 54.398633 217.95654 49.404245 221.914438 
Q 52.145609 223.486369 54.309844 229.072338 
Q 56.485177 234.630237 58.704905 245.942526 
L 65.952317 283.135536 
L 51.734959 283.135536 
L 45.419833 250.602178 
Q 43.510866 240.77761 41.546407 237.184624 
Q 39.593046 233.563569 36.330046 233.563569 
z
" style="fill:#bd2e1f;"/>
   </g>
   <g id="patch_32">
    <path clip-path="url(#pfbaf424a9c)" d="M 115.160185 271.285239 
Q 110.445625 277.210387 105.374855 280.186489 
Q 100.304085 283.135536 94.898057 283.135536 
Q 82.68211 283.135536 75.54741 265.495368 
Q 68.412711 247.855201 68.412711 217.688351 
Q 68.412711 187.16978 75.673132 169.66489 
Q 82.94403 152.16 95.589525 152.16 
Q 100.461237 152.16 104.924353 154.540881 
Q 109.397946 156.894707 113.358175 161.548248 
L 113.358175 187.656778 
Q 109.272224 181.677519 105.22818 178.728473 
Q 101.184136 175.752371 97.119138 175.752371 
Q 89.596797 175.752371 85.521322 186.62867 
Q 81.445848 197.477914 81.445848 217.688351 
Q 81.445848 237.7094 85.374647 248.63981 
Q 89.303447 259.543165 96.532437 259.543165 
Q 98.502075 259.543165 100.18884 258.920889 
Q 101.875604 258.271558 103.216635 256.918784 
L 103.216635 232.406527 
L 95.516188 232.406527 
L 95.516188 210.572762 
L 115.160185 210.572762 
z
" style="fill:#787800;"/>
   </g>
   <g id="patch_33">
    <path clip-path="url(#pfbaf424a9c)" d="M 130.430877 177.703879 
L 130.430877 257.619727 
L 135.020435 257.619727 
Q 142.868473 257.619727 147.010789 247.346035 
Q 151.163754 237.072344 151.163754 217.507417 
Q 151.163754 198.054771 147.032086 187.89336 
Q 142.911068 177.703879 135.020435 177.703879 
z
M 117.620578 152.16 
L 131.123037 152.16 
Q 142.442528 152.16 147.979814 156.42667 
Q 153.5171 160.665269 157.47839 170.854751 
Q 160.97114 179.724933 162.664271 191.317924 
Q 164.368052 202.882845 164.368052 217.507417 
Q 164.368052 232.356551 162.664271 243.977612 
Q 160.97114 255.598673 157.47839 264.440785 
Q 153.485155 274.630266 147.894625 278.896936 
Q 142.304096 283.135536 131.123037 283.135536 
L 117.620578 283.135536 
z
" style="fill:#6b296b;"/>
   </g>
   <g id="patch_34">
    <path clip-path="url(#pfbaf424a9c)" d="M 199.210461 281.966429 
L 181.232134 281.966429 
L 178.393451 283.135536 
L 166.828445 283.135536 
L 183.34442 276.71783 
L 197.059944 276.71783 
L 213.575919 283.135536 
L 202.020471 283.135536 
z
M 184.099491 280.775316 
L 196.314431 280.775316 
L 190.216519 278.222538 
z
" style="fill:#21599c;"/>
   </g>
   <g id="patch_35">
    <path clip-path="url(#pfbaf424a9c)" d="M 166.828445 270.300124 
L 180.618499 270.300124 
L 190.184167 273.734546 
L 199.812886 270.300124 
L 213.575919 270.300124 
L 213.575919 276.71783 
L 203.334709 276.71783 
L 203.334709 272.023524 
L 193.651947 275.484079 
L 186.779438 275.484079 
L 177.096676 272.023524 
L 177.096676 276.71783 
L 166.828445 276.71783 
z
" style="fill:#21599c;"/>
   </g>
   <g id="patch_36">
    <path clip-path="url(#pfbaf424a9c)" d="M 191.448781 269.340404 
L 190.53331 269.340404 
Q 179.304177 269.340404 173.061442 268.621178 
Q 166.828445 267.900823 166.828445 266.617056 
Q 166.828445 265.335547 173.051702 264.609547 
Q 179.27496 263.882418 190.202182 263.882418 
Q 201.246273 263.882418 207.411096 264.602773 
Q 213.575919 265.321998 213.575919 266.617056 
Q 213.575919 267.505644 210.303596 268.148092 
Q 207.031272 268.79054 200.885927 269.114587 
L 210.040641 270.300124 
L 198.869943 270.300124 
z
M 190.202182 264.866978 
Q 184.845701 264.866978 181.894766 265.325386 
Q 178.943832 265.783793 178.943832 266.617056 
Q 178.943832 267.463868 181.826593 267.914372 
Q 184.719093 268.363747 190.202182 268.363747 
Q 195.58788 268.363747 198.538815 267.905339 
Q 201.489749 267.445803 201.489749 266.617056 
Q 201.489749 265.783793 198.538815 265.325386 
Q 195.58788 264.866978 190.202182 264.866978 
z
" style="fill:#40ba47;"/>
   </g>
   <g id="patch_37">
    <path clip-path="url(#pfbaf424a9c)" d="M 166.828445 251.047006 
L 213.575919 251.047006 
L 213.575919 253.550269 
L 196.7577 253.550269 
L 196.7577 263.882418 
L 183.679279 263.882418 
L 183.679279 253.550269 
L 166.828445 253.550269 
z
" style="fill:#40ba47;"/>
   </g>
   <g id="patch_38">
    <path clip-path="url(#pfbaf424a9c)" d="M 166.828445 206.123065 
L 183.792913 206.123065 
L 183.792913 242.295214 
L 213.575919 242.295214 
L 213.575919 251.047006 
L 166.828445 251.047006 
z
" style="fill:#21599c;"/>
   </g>
   <g id="patch_39">
    <path clip-path="url(#pfbaf424a9c)" d="M 230.927815 278.431257 
L 247.892283 278.431257 
L 247.892283 283.135536 
L 230.927815 283.135536 
z
" style="fill:#21599c;"/>
   </g>
   <g id="patch_40">
    <path clip-path="url(#pfbaf424a9c)" d="M 216.036312 273.726979 
L 233.00078 273.726979 
L 233.00078 277.5148 
L 262.783786 277.5148 
L 262.783786 278.431257 
L 216.036312 278.431257 
z
" style="fill:#21599c;"/>
   </g>
   <g id="patch_41">
    <path clip-path="url(#pfbaf424a9c)" d="M 216.036312 264.318422 
L 229.826366 264.318422 
L 239.392035 269.353391 
L 249.020753 264.318422 
L 262.783786 264.318422 
L 262.783786 273.726979 
L 252.542576 273.726979 
L 252.542576 266.844981 
L 242.859814 271.918262 
L 235.987305 271.918262 
L 226.304543 266.844981 
L 226.304543 273.726979 
L 216.036312 273.726979 
z
" style="fill:#21599c;"/>
   </g>
   <g id="patch_42">
    <path clip-path="url(#pfbaf424a9c)" d="M 258.886047 255.358818 
L 258.886047 257.279011 
Q 254.010699 256.944726 249.363884 256.77564 
Q 244.729764 256.604611 240.603493 256.604611 
Q 235.131424 256.604611 232.503307 256.835889 
Q 229.887886 257.065224 229.887886 257.551103 
Q 229.887886 257.916484 231.65266 258.120553 
Q 233.417434 258.322678 238.06425 258.468442 
L 244.564713 258.668624 
Q 254.442371 258.973756 258.60673 259.593737 
Q 262.783786 260.211775 262.783786 261.354562 
Q 262.783786 262.853012 256.968918 263.585717 
Q 251.15405 264.318422 239.206909 264.318422 
Q 233.582485 264.318422 227.907276 264.153224 
Q 222.232066 263.989968 216.556857 263.667345 
L 216.556857 261.694677 
Q 222.232066 262.15529 227.526389 262.390455 
Q 232.820712 262.623677 237.746844 262.623677 
Q 242.749154 262.623677 245.402664 262.369077 
Q 248.056173 262.112533 248.056173 261.638315 
Q 248.056173 261.214629 246.25331 260.98335 
Q 244.450447 260.752072 239.054555 260.569382 
L 233.138117 260.3692 
Q 224.250765 260.077672 220.13719 259.440199 
Q 216.036312 258.802726 216.036312 257.722132 
Q 216.036312 256.367502 221.74961 255.638684 
Q 227.462908 254.909866 238.178516 254.909866 
Q 243.06656 254.909866 248.221224 255.02259 
Q 253.375888 255.135313 258.886047 255.358818 
z
" style="fill:#40ba47;"/>
   </g>
   <g id="patch_43">
    <path clip-path="url(#pfbaf424a9c)" d="M 216.036312 240.797031 
L 231.052303 240.797031 
L 250.026343 250.475786 
L 250.026343 240.797031 
L 262.783786 240.797031 
L 262.783786 254.909866 
L 247.756614 254.909866 
L 228.782574 245.23111 
L 228.782574 254.909866 
L 216.036312 254.909866 
z
" style="fill:#40ba47;"/>
   </g>
   <g id="patch_44">
    <path clip-path="url(#pfbaf424a9c)" d="M 216.036312 226.684196 
L 262.783786 226.684196 
L 262.783786 229.436592 
L 245.965567 229.436592 
L 245.965567 240.797031 
L 232.887146 240.797031 
L 232.887146 229.436592 
L 216.036312 229.436592 
z
" style="fill:#40ba47;"/>
   </g>
   <g id="patch_45">
    <path clip-path="url(#pfbaf424a9c)" d="M 265.244179 278.74899 
L 280.26017 278.74899 
L 299.23421 281.757337 
L 299.23421 278.74899 
L 311.991653 278.74899 
L 311.991653 283.135536 
L 296.964481 283.135536 
L 277.990441 280.127189 
L 277.990441 283.135536 
L 265.244179 283.135536 
z
" style="fill:#40ba47;"/>
   </g>
   <g id="patch_46">
    <path clip-path="url(#pfbaf424a9c)" d="M 265.244179 274.362445 
L 311.018629 274.362445 
L 311.018629 275.217944 
L 282.208647 275.217944 
L 282.208647 276.033958 
L 309.312311 276.033958 
L 309.312311 276.889456 
L 282.208647 276.889456 
L 282.208647 277.894432 
L 311.991653 277.894432 
L 311.991653 278.74899 
L 265.244179 278.74899 
z
" style="fill:#6b296b;"/>
   </g>
   <g id="patch_47">
    <path clip-path="url(#pfbaf424a9c)" d="M 278.054478 270.831398 
L 278.054478 273.507887 
L 282.644036 273.507887 
Q 290.492074 273.507887 294.63439 273.163807 
Q 298.787355 272.819727 298.787355 272.164472 
Q 298.787355 271.512977 294.655688 271.172658 
Q 290.534669 270.831398 282.644036 270.831398 
z
M 265.244179 269.9759 
L 278.746639 269.9759 
Q 290.066129 269.9759 295.603416 270.118796 
Q 301.140702 270.260753 305.101991 270.602012 
Q 308.594741 270.899086 310.287873 271.287351 
Q 311.991653 271.674675 311.991653 272.164472 
Q 311.991653 272.661789 310.287873 273.050994 
Q 308.594741 273.440199 305.101991 273.736333 
Q 301.108756 274.077592 295.518227 274.220489 
Q 289.927697 274.362445 278.746639 274.362445 
L 265.244179 274.362445 
z
" style="fill:#6b296b;"/>
   </g>
   <g id="patch_48">
    <path clip-path="url(#pfbaf424a9c)" d="M 265.244179 265.589355 
L 278.168481 265.589355 
L 288.608095 267.152755 
L 299.037889 265.589355 
L 311.991653 265.589355 
L 294.530097 268.127647 
L 294.530097 269.9759 
L 282.715556 269.9759 
L 282.715556 268.127647 
z
" style="fill:#177875;"/>
   </g>
   <g id="patch_49">
    <path clip-path="url(#pfbaf424a9c)" d="M 289.864515 264.277404 
L 288.949044 264.277404 
Q 277.719911 264.277404 271.477176 263.294213 
Q 265.244179 262.309478 265.244179 260.554551 
Q 265.244179 258.802711 271.467437 257.810259 
Q 277.690694 256.816264 288.617916 256.816264 
Q 299.662007 256.816264 305.82683 257.800999 
Q 311.991653 258.78419 311.991653 260.554551 
Q 311.991653 261.769263 308.71933 262.647498 
Q 305.447007 263.525733 299.301662 263.96871 
L 308.456375 265.589355 
L 297.285677 265.589355 
z
M 288.617916 258.162171 
Q 283.261435 258.162171 280.3105 258.78882 
Q 277.359566 259.41547 277.359566 260.554551 
Q 277.359566 261.712155 280.242327 262.328 
Q 283.134827 262.942301 288.617916 262.942301 
Q 294.003615 262.942301 296.954549 262.315652 
Q 299.905483 261.687459 299.905483 260.554551 
Q 299.905483 259.41547 296.954549 258.78882 
Q 294.003615 258.162171 288.617916 258.162171 
z
" style="fill:#40ba47;"/>
   </g>
   <g id="patch_50">
    <path clip-path="url(#pfbaf424a9c)" d="M 308.093914 248.461803 
L 308.093914 250.252303 
Q 303.218566 249.940597 298.571751 249.782931 
Q 293.937631 249.623453 289.811361 249.623453 
Q 284.339291 249.623453 281.711174 249.839111 
Q 279.095753 250.052956 279.095753 250.506018 
Q 279.095753 250.84672 280.860527 251.037006 
Q 282.625301 251.22548 287.272117 251.361399 
L 293.77258 251.54806 
Q 303.650238 251.832583 307.814597 252.41069 
Q 311.991653 252.986985 311.991653 254.052586 
Q 311.991653 255.449829 306.176785 256.133047 
Q 300.361917 256.816264 288.414777 256.816264 
Q 282.790352 256.816264 277.115143 256.662223 
Q 271.439933 256.509994 265.764724 256.209161 
L 265.764724 254.36973 
Q 271.439933 254.799232 276.734256 255.018514 
Q 282.028579 255.235984 286.954712 255.235984 
Q 291.957021 255.235984 294.610531 254.99858 
Q 297.26404 254.759363 297.26404 254.317175 
Q 297.26404 253.922105 295.461177 253.706447 
Q 293.658314 253.49079 288.262422 253.320438 
L 282.345984 253.133777 
Q 273.458632 252.86194 269.345058 252.267523 
Q 265.244179 251.673105 265.244179 250.665496 
Q 265.244179 249.402359 270.957477 248.722766 
Q 276.670775 248.043173 287.386383 248.043173 
Q 292.274427 248.043173 297.429091 248.148284 
Q 302.583756 248.253394 308.093914 248.461803 
z
" style="fill:#40ba47;"/>
   </g>
   <g id="patch_51">
    <path clip-path="url(#pfbaf424a9c)" d="M 265.244179 230.496992 
L 311.991653 230.496992 
L 311.991653 233.918987 
L 295.173434 233.918987 
L 295.173434 248.043173 
L 282.095013 248.043173 
L 282.095013 233.918987 
L 265.244179 233.918987 
z
" style="fill:#40ba47;"/>
   </g>
   <g id="patch_52">
    <path clip-path="url(#pfbaf424a9c)" d="M 314.452046 278.74899 
L 361.19952 278.74899 
L 361.19952 279.604489 
L 344.381301 279.604489 
L 344.381301 283.135536 
L 331.30288 283.135536 
L 331.30288 279.604489 
L 314.452046 279.604489 
z
" style="fill:#40ba47;"/>
   </g>
   <g id="patch_53">
    <path clip-path="url(#pfbaf424a9c)" d="M 357.301781 274.57176 
L 357.301781 275.46701 
Q 352.426434 275.311157 347.779618 275.232324 
Q 343.145498 275.152585 339.019228 275.152585 
Q 333.547158 275.152585 330.919041 275.260414 
Q 328.30362 275.367336 328.30362 275.593867 
Q 328.30362 275.764219 330.068394 275.859362 
Q 331.833168 275.953598 336.479984 276.021558 
L 342.980448 276.114888 
Q 352.858105 276.25715 357.022464 276.546203 
Q 361.19952 276.834351 361.19952 277.367152 
Q 361.19952 278.065773 355.384652 278.407382 
Q 349.569785 278.74899 337.622644 278.74899 
Q 331.998219 278.74899 326.32301 278.67197 
Q 320.647801 278.595855 314.972591 278.445439 
L 314.972591 277.525723 
Q 320.647801 277.740475 325.942123 277.850116 
Q 331.236446 277.95885 336.162579 277.95885 
Q 341.164888 277.95885 343.818398 277.840148 
Q 346.471907 277.72054 346.471907 277.499446 
Q 346.471907 277.301911 344.669044 277.194082 
Q 342.866182 277.086253 337.470289 277.001078 
L 331.553852 276.907747 
Q 322.666499 276.771828 318.552925 276.47462 
Q 314.452046 276.177411 314.452046 275.673606 
Q 314.452046 275.042038 320.165344 274.702242 
Q 325.878642 274.362445 336.59425 274.362445 
Q 341.482294 274.362445 346.636958 274.415 
Q 351.791623 274.467555 357.301781 274.57176 
z
" style="fill:#40ba47;"/>
   </g>
   <g id="patch_54">
    <path clip-path="url(#pfbaf424a9c)" d="M 314.452046 269.9759 
L 331.416514 269.9759 
L 331.416514 273.507887 
L 361.19952 273.507887 
L 361.19952 274.362445 
L 314.452046 274.362445 
z
" style="fill:#21599c;"/>
   </g>
   <g id="patch_55">
    <path clip-path="url(#pfbaf424a9c)" d="M 314.452046 265.589355 
L 327.902707 265.589355 
L 327.902707 267.260867 
L 347.74886 267.260867 
L 347.74886 265.589355 
L 361.19952 265.589355 
L 361.19952 269.9759 
L 347.74886 269.9759 
L 347.74886 268.116366 
L 327.902707 268.116366 
L 327.902707 269.9759 
L 314.452046 269.9759 
z
" style="fill:#177875;"/>
   </g>
   <g id="patch_56">
    <path clip-path="url(#pfbaf424a9c)" d="M 314.452046 256.816264 
L 326.77126 256.816264 
L 326.77126 260.018273 
L 344.528132 256.816264 
L 358.833985 256.816264 
L 335.823783 260.971543 
L 361.19952 265.589355 
L 345.777462 265.589355 
L 326.77126 262.133516 
L 326.77126 265.589355 
L 314.452046 265.589355 
z
" style="fill:#bd2e1f;"/>
   </g>
   <g id="patch_57">
    <path clip-path="url(#pfbaf424a9c)" d="M 314.452046 248.043173 
L 327.376348 248.043173 
L 337.815962 251.169974 
L 348.245756 248.043173 
L 361.19952 248.043173 
L 343.737964 253.119758 
L 343.737964 256.816264 
L 331.923424 256.816264 
L 331.923424 253.119758 
z
" style="fill:#177875;"/>
   </g>
   <g id="patch_58">
    <path clip-path="url(#pfbaf424a9c)" d="M 314.452046 230.496992 
L 338.750994 230.496992 
Q 349.597868 230.496992 355.392607 231.986124 
Q 361.19952 233.471495 361.19952 236.220372 
Q 361.19952 238.98429 355.392607 240.469661 
Q 349.597868 241.955032 338.750994 241.955032 
L 329.097153 241.955032 
L 329.097153 248.043173 
L 314.452046 248.043173 
z
M 329.097153 233.77609 
L 329.097153 238.675934 
L 337.192744 238.675934 
Q 341.453582 238.675934 343.778782 238.036661 
Q 346.103982 237.397387 346.103982 236.220372 
Q 346.103982 235.047116 343.778782 234.411603 
Q 341.453582 233.77609 337.192744 233.77609 
z
" style="fill:#787800;"/>
   </g>
   <g id="matplotlib.axis_2">
    <g id="ytick_6">
     <g id="line2d_8">
      <g>
       <use style="stroke:#000000;stroke-width:0.8;" x="19.204844" xlink:href="#m58726395b8" y="283.135536"/>
      </g>
     </g>
     <g id="text_6">
      <text style="font-family:Helvetica;font-size:9px;font-stretch:normal;font-style:normal;font-weight:normal;text-anchor:end;" transform="rotate(-0, 12.204844, 286.363582)" x="12.204844" y="286.363582">0</text>
     </g>
    </g>
    <g id="ytick_7">
     <g id="line2d_9">
      <g>
       <use style="stroke:#000000;stroke-width:0.8;" x="19.204844" xlink:href="#m58726395b8" y="252.83065"/>
      </g>
     </g>
     <g id="text_7">
      <text style="font-family:Helvetica;font-size:9px;font-stretch:normal;font-style:normal;font-weight:normal;text-anchor:end;" transform="rotate(-0, 12.204844, 256.058697)" x="12.204844" y="256.058697">1</text>
     </g>
    </g>
    <g id="ytick_8">
     <g id="line2d_10">
      <g>
       <use style="stroke:#000000;stroke-width:0.8;" x="19.204844" xlink:href="#m58726395b8" y="222.525765"/>
      </g>
     </g>
     <g id="text_8">
      <text style="font-family:Helvetica;font-size:9px;font-stretch:normal;font-style:normal;font-weight:normal;text-anchor:end;" transform="rotate(-0, 12.204844, 225.753812)" x="12.204844" y="225.753812">2</text>
     </g>
    </g>
    <g id="ytick_9">
     <g id="line2d_11">
      <g>
       <use style="stroke:#000000;stroke-width:0.8;" x="19.204844" xlink:href="#m58726395b8" y="192.220879"/>
      </g>
     </g>
     <g id="text_9">
      <text style="font-family:Helvetica;font-size:9px;font-stretch:normal;font-style:normal;font-weight:normal;text-anchor:end;" transform="rotate(-0, 12.204844, 195.448926)" x="12.204844" y="195.448926">3</text>
     </g>
    </g>
    <g id="ytick_10">
     <g id="line2d_12">
      <g>
       <use style="stroke:#000000;stroke-width:0.8;" x="19.204844" xlink:href="#m58726395b8" y="161.915994"/>
      </g>
     </g>
     <g id="text_10">
      <text style="font-family:Helvetica;font-size:9px;font-stretch:normal;font-style:normal;font-weight:normal;text-anchor:end;" transform="rotate(-0, 12.204844, 165.144041)" x="12.204844" y="165.144041">4</text>
     </g>
    </g>
   </g>
   <g id="patch_59">
    <path d="M 19.204844 283.135536 
L 19.204844 152.16 
" style="fill:none;stroke:#000000;stroke-linecap:square;stroke-linejoin:miter;stroke-width:0.8;"/>
   </g>
   <g id="patch_60">
    <path d="M 19.204844 283.135536 
L 361.19952 283.135536 
" style="fill:none;stroke:#000000;stroke-linecap:square;stroke-linejoin:miter;stroke-width:0.8;"/>
   </g>
  </g>
  <g id="axes_3">
   <g id="patch_61">
    <path d="M 19.204844 428.095536 
L 361.19952 428.095536 
L 361.19952 297.12 
L 19.204844 297.12 
z
" style="fill:#ffffff;"/>
   </g>
   <g id="line2d_13">
    <path clip-path="url(#p75fbfbb873)" d="M 19.204844 428.095536 
L 361.19952 428.095536 
" style="fill:none;stroke:#000000;stroke-linecap:square;stroke-width:0.5;"/>
   </g>
   <g id="patch_62">
    <path clip-path="url(#p75fbfbb873)" d="M 38.17242 355.197236 
Q 42.367706 355.197236 44.187883 351.267409 
Q 46.008061 347.309511 46.008061 338.270908 
Q 46.008061 329.316515 44.187883 325.470898 
Q 42.367706 321.597211 38.17242 321.597211 
L 32.556508 321.597211 
L 32.556508 355.197236 
z
M 32.556508 378.523569 
L 32.556508 428.095536 
L 19.204844 428.095536 
L 19.204844 297.12 
L 39.593046 297.12 
Q 49.825993 297.12 54.58731 305.821761 
Q 59.359725 314.495451 59.359725 333.274413 
Q 59.359725 346.242843 56.87363 354.579692 
Q 54.398633 362.91654 49.404245 366.874438 
Q 52.145609 368.446369 54.309844 374.032338 
Q 56.485177 379.590237 58.704905 390.902526 
L 65.952317 428.095536 
L 51.734959 428.095536 
L 45.419833 395.562178 
Q 43.510866 385.73761 41.546407 382.144624 
Q 39.593046 378.523569 36.330046 378.523569 
z
" style="fill:#bd2e1f;"/>
   </g>
   <g id="patch_63">
    <path clip-path="url(#p75fbfbb873)" d="M 115.160185 416.245239 
Q 110.445625 422.170387 105.374855 425.146489 
Q 100.304085 428.095536 94.898057 428.095536 
Q 82.68211 428.095536 75.54741 410.455368 
Q 68.412711 392.815201 68.412711 362.648351 
Q 68.412711 332.12978 75.673132 314.62489 
Q 82.94403 297.12 95.589525 297.12 
Q 100.461237 297.12 104.924353 299.500881 
Q 109.397946 301.854707 113.358175 306.508248 
L 113.358175 332.616778 
Q 109.272224 326.637519 105.22818 323.688473 
Q 101.184136 320.712371 97.119138 320.712371 
Q 89.596797 320.712371 85.521322 331.58867 
Q 81.445848 342.437914 81.445848 362.648351 
Q 81.445848 382.6694 85.374647 393.59981 
Q 89.303447 404.503165 96.532437 404.503165 
Q 98.502075 404.503165 100.18884 403.880889 
Q 101.875604 403.231558 103.216635 401.878784 
L 103.216635 377.366527 
L 95.516188 377.366527 
L 95.516188 355.532762 
L 115.160185 355.532762 
z
" style="fill:#787800;"/>
   </g>
   <g id="patch_64">
    <path clip-path="url(#p75fbfbb873)" d="M 130.430877 322.663879 
L 130.430877 402.579727 
L 135.020435 402.579727 
Q 142.868473 402.579727 147.010789 392.306035 
Q 151.163754 382.032344 151.163754 362.467417 
Q 151.163754 343.014771 147.032086 332.85336 
Q 142.911068 322.663879 135.020435 322.663879 
z
M 117.620578 297.12 
L 131.123037 297.12 
Q 142.442528 297.12 147.979814 301.38667 
Q 153.5171 305.625269 157.47839 315.814751 
Q 160.97114 324.684933 162.664271 336.277924 
Q 164.368052 347.842845 164.368052 362.467417 
Q 164.368052 377.316551 162.664271 388.937612 
Q 160.97114 400.558673 157.47839 409.400785 
Q 153.485155 419.590266 147.894625 423.856936 
Q 142.304096 428.095536 131.123037 428.095536 
L 117.620578 428.095536 
z
" style="fill:#6b296b;"/>
   </g>
   <g id="patch_65">
    <path clip-path="url(#p75fbfbb873)" d="M 199.210461 426.979597 
L 181.232134 426.979597 
L 178.393451 428.095536 
L 166.828445 428.095536 
L 183.34442 421.969687 
L 197.059944 421.969687 
L 213.575919 428.095536 
L 202.020471 428.095536 
z
M 184.099491 425.842652 
L 196.314431 425.842652 
L 190.216519 423.405966 
z
" style="fill:#21599c;"/>
   </g>
   <g id="patch_66">
    <path clip-path="url(#p75fbfbb873)" d="M 166.828445 415.843839 
L 180.618499 415.843839 
L 190.184167 419.122074 
L 199.812886 415.843839 
L 213.575919 415.843839 
L 213.575919 421.969687 
L 203.334709 421.969687 
L 203.334709 417.488864 
L 193.651947 420.792043 
L 186.779438 420.792043 
L 177.096676 417.488864 
L 177.096676 421.969687 
L 166.828445 421.969687 
z
" style="fill:#21599c;"/>
   </g>
   <g id="patch_67">
    <path clip-path="url(#p75fbfbb873)" d="M 191.448781 414.927764 
L 190.53331 414.927764 
Q 179.304177 414.927764 173.061442 414.241246 
Q 166.828445 413.553651 166.828445 412.328266 
Q 166.828445 411.105036 173.051702 410.412052 
Q 179.27496 409.71799 190.202182 409.71799 
Q 201.246273 409.71799 207.411096 410.405586 
Q 213.575919 411.092103 213.575919 412.328266 
Q 213.575919 413.176444 210.303596 413.789675 
Q 207.031272 414.402907 200.885927 414.712217 
L 210.040641 415.843839 
L 198.869943 415.843839 
z
M 190.202182 410.657776 
Q 184.845701 410.657776 181.894766 411.095336 
Q 178.943832 411.532897 178.943832 412.328266 
Q 178.943832 413.136567 181.826593 413.566584 
Q 184.719093 413.995522 190.202182 413.995522 
Q 195.58788 413.995522 198.538815 413.557962 
Q 201.489749 413.119324 201.489749 412.328266 
Q 201.489749 411.532897 198.538815 411.095336 
Q 195.58788 410.657776 190.202182 410.657776 
z
" style="fill:#40ba47;"/>
   </g>
   <g id="patch_68">
    <path clip-path="url(#p75fbfbb873)" d="M 166.828445 391.340445 
L 213.575919 391.340445 
L 213.575919 394.924579 
L 196.7577 394.924579 
L 196.7577 409.71799 
L 183.679279 409.71799 
L 183.679279 394.924579 
L 166.828445 394.924579 
z
" style="fill:#40ba47;"/>
   </g>
   <g id="patch_69">
    <path clip-path="url(#p75fbfbb873)" d="M 166.828445 354.585355 
L 183.792913 354.585355 
L 183.792913 384.180056 
L 213.575919 384.180056 
L 213.575919 391.340445 
L 166.828445 391.340445 
z
" style="fill:#21599c;"/>
   </g>
   <g id="patch_70">
    <path clip-path="url(#p75fbfbb873)" d="M 230.927815 423.391257 
L 247.892283 423.391257 
L 247.892283 428.095536 
L 230.927815 428.095536 
z
" style="fill:#21599c;"/>
   </g>
   <g id="patch_71">
    <path clip-path="url(#p75fbfbb873)" d="M 216.036312 418.686979 
L 233.00078 418.686979 
L 233.00078 422.4748 
L 262.783786 422.4748 
L 262.783786 423.391257 
L 216.036312 423.391257 
z
" style="fill:#21599c;"/>
   </g>
   <g id="patch_72">
    <path clip-path="url(#p75fbfbb873)" d="M 216.036312 409.278422 
L 231.052303 409.278422 
L 250.026343 415.730926 
L 250.026343 409.278422 
L 262.783786 409.278422 
L 262.783786 418.686979 
L 247.756614 418.686979 
L 228.782574 412.234476 
L 228.782574 418.686979 
L 216.036312 418.686979 
z
" style="fill:#40ba47;"/>
   </g>
   <g id="patch_73">
    <path clip-path="url(#p75fbfbb873)" d="M 258.886047 400.318818 
L 258.886047 402.239011 
Q 254.010699 401.904726 249.363884 401.73564 
Q 244.729764 401.564611 240.603493 401.564611 
Q 235.131424 401.564611 232.503307 401.795889 
Q 229.887886 402.025224 229.887886 402.511103 
Q 229.887886 402.876484 231.65266 403.080553 
Q 233.417434 403.282678 238.06425 403.428442 
L 244.564713 403.628624 
Q 254.442371 403.933756 258.60673 404.553737 
Q 262.783786 405.171775 262.783786 406.314562 
Q 262.783786 407.813012 256.968918 408.545717 
Q 251.15405 409.278422 239.206909 409.278422 
Q 233.582485 409.278422 227.907276 409.113224 
Q 222.232066 408.949968 216.556857 408.627345 
L 216.556857 406.654677 
Q 222.232066 407.11529 227.526389 407.350455 
Q 232.820712 407.583677 237.746844 407.583677 
Q 242.749154 407.583677 245.402664 407.329077 
Q 248.056173 407.072533 248.056173 406.598315 
Q 248.056173 406.174629 246.25331 405.94335 
Q 244.450447 405.712072 239.054555 405.529382 
L 233.138117 405.3292 
Q 224.250765 405.037672 220.13719 404.400199 
Q 216.036312 403.762726 216.036312 402.682132 
Q 216.036312 401.327502 221.74961 400.598684 
Q 227.462908 399.869866 238.178516 399.869866 
Q 243.06656 399.869866 248.221224 399.98259 
Q 253.375888 400.095313 258.886047 400.318818 
z
" style="fill:#40ba47;"/>
   </g>
   <g id="patch_74">
    <path clip-path="url(#p75fbfbb873)" d="M 216.036312 385.757031 
L 229.826366 385.757031 
L 239.392035 393.309484 
L 249.020753 385.757031 
L 262.783786 385.757031 
L 262.783786 399.869866 
L 252.542576 399.869866 
L 252.542576 389.546868 
L 242.859814 397.15679 
L 235.987305 397.15679 
L 226.304543 389.546868 
L 226.304543 399.869866 
L 216.036312 399.869866 
z
" style="fill:#21599c;"/>
   </g>
   <g id="patch_75">
    <path clip-path="url(#p75fbfbb873)" d="M 216.036312 371.644196 
L 262.783786 371.644196 
L 262.783786 374.396592 
L 245.965567 374.396592 
L 245.965567 385.757031 
L 232.887146 385.757031 
L 232.887146 374.396592 
L 216.036312 374.396592 
z
" style="fill:#40ba47;"/>
   </g>
   <g id="patch_76">
    <path clip-path="url(#p75fbfbb873)" d="M 265.244179 423.288089 
L 311.018629 423.288089 
L 311.018629 424.225675 
L 282.208647 424.225675 
L 282.208647 425.119988 
L 309.312311 425.119988 
L 309.312311 426.057574 
L 282.208647 426.057574 
L 282.208647 427.15898 
L 311.991653 427.15898 
L 311.991653 428.095536 
L 265.244179 428.095536 
z
" style="fill:#6b296b;"/>
   </g>
   <g id="patch_77">
    <path clip-path="url(#p75fbfbb873)" d="M 265.244179 418.480643 
L 278.168481 418.480643 
L 288.608095 420.194055 
L 299.037889 418.480643 
L 311.991653 418.480643 
L 294.530097 421.262491 
L 294.530097 423.288089 
L 282.715556 423.288089 
L 282.715556 421.262491 
z
" style="fill:#177875;"/>
   </g>
   <g id="patch_78">
    <path clip-path="url(#p75fbfbb873)" d="M 265.244179 408.86575 
L 280.26017 408.86575 
L 299.23421 415.459761 
L 299.23421 408.86575 
L 311.991653 408.86575 
L 311.991653 418.480643 
L 296.964481 418.480643 
L 277.990441 411.886631 
L 277.990441 418.480643 
L 265.244179 418.480643 
z
" style="fill:#40ba47;"/>
   </g>
   <g id="patch_79">
    <path clip-path="url(#p75fbfbb873)" d="M 289.864515 407.427914 
L 288.949044 407.427914 
Q 277.719911 407.427914 271.477176 406.350383 
Q 265.244179 405.27116 265.244179 403.347843 
Q 265.244179 401.42791 271.467437 400.340229 
Q 277.690694 399.250857 288.617916 399.250857 
Q 299.662007 399.250857 305.82683 400.33008 
Q 311.991653 401.407611 311.991653 403.347843 
Q 311.991653 404.67911 308.71933 405.641614 
Q 305.447007 406.604119 299.301662 407.0896 
L 308.456375 408.86575 
L 297.285677 408.86575 
z
M 288.617916 400.725907 
Q 283.261435 400.725907 280.3105 401.412685 
Q 277.359566 402.099463 277.359566 403.347843 
Q 277.359566 404.616522 280.242327 405.291459 
Q 283.134827 405.964705 288.617916 405.964705 
Q 294.003615 405.964705 296.954549 405.277926 
Q 299.905483 404.589457 299.905483 403.347843 
Q 299.905483 402.099463 296.954549 401.412685 
Q 294.003615 400.725907 288.617916 400.725907 
z
" style="fill:#40ba47;"/>
   </g>
   <g id="patch_80">
    <path clip-path="url(#p75fbfbb873)" d="M 308.093914 390.094762 
L 308.093914 392.057066 
Q 303.218566 391.71545 298.571751 391.542656 
Q 293.937631 391.367876 289.811361 391.367876 
Q 284.339291 391.367876 281.711174 391.604226 
Q 279.095753 391.838591 279.095753 392.335125 
Q 279.095753 392.708519 280.860527 392.917064 
Q 282.625301 393.123622 287.272117 393.272582 
L 293.77258 393.477154 
Q 303.650238 393.788978 307.814597 394.422556 
Q 311.991653 395.054148 311.991653 396.221997 
Q 311.991653 397.753309 306.176785 398.502083 
Q 300.361917 399.250857 288.414777 399.250857 
Q 282.790352 399.250857 277.115143 399.082035 
Q 271.439933 398.9152 265.764724 398.585501 
L 265.764724 396.569571 
Q 271.439933 397.040286 276.734256 397.280608 
Q 282.028579 397.518945 286.954712 397.518945 
Q 291.957021 397.518945 294.610531 397.258761 
Q 297.26404 396.996591 297.26404 396.511973 
Q 297.26404 396.078995 295.461177 395.842644 
Q 293.658314 395.606294 288.262422 395.419597 
L 282.345984 395.215025 
Q 273.458632 394.917104 269.345058 394.265651 
Q 265.244179 393.614198 265.244179 392.509905 
Q 265.244179 391.125567 270.957477 390.380766 
Q 276.670775 389.635964 287.386383 389.635964 
Q 292.274427 389.635964 297.429091 389.75116 
Q 302.583756 389.866356 308.093914 390.094762 
z
" style="fill:#40ba47;"/>
   </g>
   <g id="patch_81">
    <path clip-path="url(#p75fbfbb873)" d="M 265.244179 370.406178 
L 311.991653 370.406178 
L 311.991653 374.156522 
L 295.173434 374.156522 
L 295.173434 389.635964 
L 282.095013 389.635964 
L 282.095013 374.156522 
L 265.244179 374.156522 
z
" style="fill:#40ba47;"/>
   </g>
   <g id="patch_82">
    <path clip-path="url(#p75fbfbb873)" d="M 314.452046 423.129223 
L 361.19952 423.129223 
L 361.19952 424.097792 
L 344.381301 424.097792 
L 344.381301 428.095536 
L 331.30288 428.095536 
L 331.30288 424.097792 
L 314.452046 424.097792 
z
" style="fill:#40ba47;"/>
   </g>
   <g id="patch_83">
    <path clip-path="url(#p75fbfbb873)" d="M 314.452046 418.16291 
L 331.416514 418.16291 
L 331.416514 422.161718 
L 361.19952 422.161718 
L 361.19952 423.129223 
L 314.452046 423.129223 
z
" style="fill:#21599c;"/>
   </g>
   <g id="patch_84">
    <path clip-path="url(#p75fbfbb873)" d="M 314.452046 413.196597 
L 327.902707 413.196597 
L 327.902707 415.089032 
L 347.74886 415.089032 
L 347.74886 413.196597 
L 361.19952 413.196597 
L 361.19952 418.16291 
L 347.74886 418.16291 
L 347.74886 416.057602 
L 327.902707 416.057602 
L 327.902707 418.16291 
L 314.452046 418.16291 
z
" style="fill:#177875;"/>
   </g>
   <g id="patch_85">
    <path clip-path="url(#p75fbfbb873)" d="M 314.452046 403.263971 
L 326.77126 403.263971 
L 326.77126 406.889188 
L 344.528132 403.263971 
L 358.833985 403.263971 
L 335.823783 407.968451 
L 361.19952 413.196597 
L 345.777462 413.196597 
L 326.77126 409.284002 
L 326.77126 413.196597 
L 314.452046 413.196597 
z
" style="fill:#bd2e1f;"/>
   </g>
   <g id="patch_86">
    <path clip-path="url(#p75fbfbb873)" d="M 314.452046 388.365032 
L 327.376348 388.365032 
L 337.815962 393.675134 
L 348.245756 388.365032 
L 361.19952 388.365032 
L 343.737964 396.986364 
L 343.737964 403.263971 
L 331.923424 403.263971 
L 331.923424 396.986364 
z
" style="fill:#177875;"/>
   </g>
   <g id="patch_87">
    <path clip-path="url(#p75fbfbb873)" d="M 314.452046 368.49978 
L 338.750994 368.49978 
Q 349.597868 368.49978 355.392607 370.185729 
Q 361.19952 371.867421 361.19952 374.979616 
Q 361.19952 378.10884 355.392607 379.790532 
Q 349.597868 381.472224 338.750994 381.472224 
L 329.097153 381.472224 
L 329.097153 388.365032 
L 314.452046 388.365032 
z
M 329.097153 372.212274 
L 329.097153 377.759729 
L 337.192744 377.759729 
Q 341.453582 377.759729 343.778782 377.035963 
Q 346.103982 376.312197 346.103982 374.979616 
Q 346.103982 373.651292 343.778782 372.931783 
Q 341.453582 372.212274 337.192744 372.212274 
z
" style="fill:#787800;"/>
   </g>
   <g id="matplotlib.axis_3">
    <g id="ytick_11">
     <g id="line2d_14">
      <g>
       <use style="stroke:#000000;stroke-width:0.8;" x="19.204844" xlink:href="#m58726395b8" y="428.095536"/>
      </g>
     </g>
     <g id="text_11">
      <text style="font-family:Helvetica;font-size:9px;font-stretch:normal;font-style:normal;font-weight:normal;text-anchor:end;" transform="rotate(-0, 12.204844, 431.323582)" x="12.204844" y="431.323582">0</text>
     </g>
    </g>
    <g id="ytick_12">
     <g id="line2d_15">
      <g>
       <use style="stroke:#000000;stroke-width:0.8;" x="19.204844" xlink:href="#m58726395b8" y="397.79065"/>
      </g>
     </g>
     <g id="text_12">
      <text style="font-family:Helvetica;font-size:9px;font-stretch:normal;font-style:normal;font-weight:normal;text-anchor:end;" transform="rotate(-0, 12.204844, 401.018697)" x="12.204844" y="401.018697">1</text>
     </g>
    </g>
    <g id="ytick_13">
     <g id="line2d_16">
      <g>
       <use style="stroke:#000000;stroke-width:0.8;" x="19.204844" xlink:href="#m58726395b8" y="367.485765"/>
      </g>
     </g>
     <g id="text_13">
      <text style="font-family:Helvetica;font-size:9px;font-stretch:normal;font-style:normal;font-weight:normal;text-anchor:end;" transform="rotate(-0, 12.204844, 370.713812)" x="12.204844" y="370.713812">2</text>
     </g>
    </g>
    <g id="ytick_14">
     <g id="line2d_17">
      <g>
       <use style="stroke:#000000;stroke-width:0.8;" x="19.204844" xlink:href="#m58726395b8" y="337.180879"/>
      </g>
     </g>
     <g id="text_14">
      <text style="font-family:Helvetica;font-size:9px;font-stretch:normal;font-style:normal;font-weight:normal;text-anchor:end;" transform="rotate(-0, 12.204844, 340.408926)" x="12.204844" y="340.408926">3</text>
     </g>
    </g>
    <g id="ytick_15">
     <g id="line2d_18">
      <g>
       <use style="stroke:#000000;stroke-width:0.8;" x="19.204844" xlink:href="#m58726395b8" y="306.875994"/>
      </g>
     </g>
     <g id="text_15">
      <text style="font-family:Helvetica;font-size:9px;font-stretch:normal;font-style:normal;font-weight:normal;text-anchor:end;" transform="rotate(-0, 12.204844, 310.104041)" x="12.204844" y="310.104041">4</text>
     </g>
    </g>
   </g>
   <g id="patch_88">
    <path d="M 19.204844 428.095536 
L 19.204844 297.12 
" style="fill:none;stroke:#000000;stroke-linecap:square;stroke-linejoin:miter;stroke-width:0.8;"/>
   </g>
   <g id="patch_89">
    <path d="M 19.204844 428.095536 
L 361.19952 428.095536 
" style="fill:none;stroke:#000000;stroke-linecap:square;stroke-linejoin:miter;stroke-width:0.8;"/>
   </g>
  </g>
 </g>
 <defs>
  <clipPath id="p84e35360c9">
   <rect height="130.975536" width="341.994676" x="19.204844" y="7.2"/>
  </clipPath>
  <clipPath id="pfbaf424a9c">
   <rect height="130.975536" width="341.994676" x="19.204844" y="152.16"/>
  </clipPath>
  <clipPath id="p75fbfbb873">
   <rect height="130.975536" width="341.994676" x="19.204844" y="297.12"/>
  </clipPath>
 </defs>
</svg>
